<svg width="148" height="25" viewBox="0 0 148 25" fill="none" xmlns="http://www.w3.org/2000/svg">
<path d="M37 6.299H42.227C42.973 6.299 43.661 6.454 44.289 6.765C44.918 7.076 45.412 7.5 45.773 8.035C46.134 8.57 46.315 9.155 46.315 9.789C46.315 10.461 46.15 11.043 45.82 11.535C45.49 12.026 45.058 12.403 44.523 12.664V12.814C45.22 13.062 45.773 13.457 46.184 13.999C46.594 14.54 46.8 15.19 46.8 15.949C46.8 16.684 46.604 17.334 46.212 17.9C45.8125 18.4726 45.2636 18.9247 44.625 19.207C43.96 19.512 43.222 19.664 42.413 19.664H37V6.299ZM42.04 11.749C42.588 11.749 43.026 11.597 43.356 11.292C43.686 10.987 43.851 10.604 43.851 10.144C43.851 9.696 43.692 9.32 43.375 9.014C43.057 8.71 42.637 8.557 42.115 8.557H39.52V11.749H42.04V11.749ZM42.32 17.368C42.93 17.368 43.406 17.209 43.748 16.892C44.09 16.575 44.261 16.161 44.261 15.651C44.261 15.141 44.087 14.724 43.739 14.4C43.39 14.076 42.892 13.915 42.245 13.915H39.52V17.368H42.32V17.368ZM55.247 19.963C53.94 19.963 52.755 19.655 51.691 19.039C50.6412 18.4374 49.7736 17.5633 49.18 16.509C48.57 15.439 48.265 14.263 48.265 12.981C48.265 11.7 48.57 10.524 49.18 9.453C49.7735 8.39923 50.6407 7.52543 51.69 6.924C52.756 6.308 53.94 6 55.248 6C56.554 6 57.74 6.308 58.804 6.924C59.8534 7.52571 60.7206 8.39987 61.314 9.454C61.924 10.524 62.229 11.7 62.229 12.981C62.229 14.263 61.924 15.439 61.314 16.509C60.7206 17.5631 59.8534 18.4373 58.804 19.039C57.74 19.655 56.554 19.963 55.248 19.963H55.247ZM55.247 17.573C56.0373 17.581 56.8158 17.3818 57.505 16.995C58.1841 16.6147 58.7435 16.0522 59.12 15.371C59.512 14.674 59.708 13.877 59.708 12.981C59.708 12.085 59.512 11.289 59.12 10.592C58.7435 9.91077 58.1841 9.34829 57.505 8.968C56.8159 8.5809 56.0373 8.38126 55.247 8.389C54.4591 8.38031 53.6829 8.58006 52.997 8.968C52.3221 9.35052 51.7666 9.91268 51.392 10.592C51 11.289 50.804 12.085 50.804 12.982C50.804 13.877 51 14.674 51.392 15.371C51.7666 16.0503 52.3221 16.6125 52.997 16.995C53.683 17.3826 54.4592 17.582 55.247 17.573V17.573ZM70.6 19.963C69.293 19.963 68.108 19.655 67.044 19.039C65.9946 18.4373 65.1274 17.5631 64.534 16.509C63.924 15.439 63.619 14.263 63.619 12.981C63.619 11.7 63.924 10.524 64.533 9.453C65.1268 8.3991 65.9944 7.52529 67.044 6.924C68.108 6.308 69.294 6 70.6 6C71.907 6 73.092 6.308 74.156 6.924C75.2054 7.52571 76.0726 8.39987 76.666 9.454C77.276 10.524 77.581 11.7 77.581 12.981C77.581 14.263 77.276 15.439 76.667 16.509C76.0734 17.5633 75.2058 18.4374 74.156 19.039C73.092 19.655 71.906 19.963 70.6 19.963V19.963ZM70.6 17.573C71.3906 17.5812 72.1695 17.3819 72.859 16.995C73.5378 16.6146 74.0968 16.0521 74.473 15.371C74.865 14.674 75.061 13.877 75.061 12.981C75.061 12.085 74.865 11.289 74.473 10.592C74.0968 9.9109 73.5378 9.34844 72.859 8.968C72.1696 8.58073 71.3907 8.38108 70.6 8.389C69.8121 8.38031 69.0359 8.58006 68.35 8.968C67.6751 9.35052 67.1196 9.91268 66.745 10.592C66.353 11.289 66.157 12.085 66.157 12.982C66.157 13.877 66.353 14.674 66.745 15.371C67.1198 16.0505 67.6758 16.6126 68.351 16.995C69.0367 17.3824 69.8125 17.5818 70.6 17.573V17.573ZM79.83 6.3H82.35V12.03H82.5L87.39 6.3H90.433V6.449L85.6 11.973L90.938 19.515V19.664H87.858L83.864 13.971L82.352 15.744V19.664H79.832V6.299L79.83 6.3ZM93.779 6H97.027L100.573 15.39H100.723L104.268 6H107.535V19.365H105.034V12.776L105.184 10.555H105.034L101.636 19.365H99.676L96.26 10.555H96.111L96.261 12.776V19.366H93.778V6H93.779ZM114.579 6H117.473L122.494 19.365H119.713L118.593 16.173H113.478L112.358 19.365H109.577L114.579 6ZM117.772 13.859L116.596 10.499L116.11 8.893H115.961L115.476 10.499L114.281 13.859H117.771H117.772ZM124.553 6H129.425C130.296 6 131.071 6.18 131.749 6.541C132.427 6.902 132.953 7.403 133.326 8.044C133.7 8.684 133.886 9.41 133.886 10.219C133.886 11.077 133.616 11.839 133.074 12.505C132.539 13.1664 131.832 13.6672 131.03 13.952L131.012 14.082L134.596 19.216V19.366H131.702L128.249 14.344H127.073V19.365H124.553V6ZM129.406 12.03C129.979 12.03 130.446 11.855 130.806 11.507C131.167 11.158 131.348 10.717 131.348 10.181C131.348 9.671 131.176 9.236 130.834 8.875C130.492 8.514 130.028 8.333 129.444 8.333H127.073V12.029H129.406V12.03ZM136.636 6H139.156V11.73H139.306L144.196 6H147.239V6.15L142.404 11.675L147.744 19.216V19.366H144.664L140.668 13.672L139.156 15.445V19.365H136.636V6V6Z" fill="white"/>
<path d="M12.5 25C19.4036 25 25 19.4036 25 12.5C25 5.59644 19.4036 0 12.5 0C5.59644 0 0 5.59644 0 12.5C0 19.4036 5.59644 25 12.5 25Z" fill="#5267DF"/>
<path fill-rule="evenodd" clip-rule="evenodd" d="M9 9V19L12.54 15.56L16.078 19V9C16.078 8.46957 15.8673 7.96086 15.4922 7.58579C15.1171 7.21071 14.6084 7 14.078 7H11C10.4696 7 9.96086 7.21071 9.58579 7.58579C9.21071 7.96086 9 8.46957 9 9Z" fill="white"/>
</svg>
